<svg width="120" height="120" viewBox="0 0 120 120" fill="none" xmlns="http://www.w3.org/2000/svg">
<path d="M40.6763 29.0581C61.6822 28.6436 91.2524 36.5192 91.2524 54.7575C91.2524 72.9958 58.6467 77.2811 58.6467 77.2811C58.6467 77.2811 65.2788 78.9392 76.3366 78.9392C87.3943 78.9392 120 75.3489 120 54.0688C119.987 32.642 83.651 17.3371 40.6763 29.0581Z" fill="url(#paint0_linear_684_35801)"/>
<path d="M67.2565 41.7868C67.2565 41.7868 30.799 44.0571 28.803 64.4444C27.5978 76.7457 43.9038 92.0824 67.2565 93.7405C28.1462 100.685 -1.83222 84.3344 0.0872604 63.0032C2.17255 39.8482 36.3279 33.7709 67.2565 41.7868Z" fill="#A81134"/>
<defs>
<linearGradient id="paint0_linear_684_35801" x1="80.3382" y1="25" x2="80.3382" y2="78.9392" gradientUnits="userSpaceOnUse">
<stop stop-color="#FDFCFD"/>
<stop offset="1" stop-color="#CACACA"/>
</linearGradient>
</defs>
</svg>
